<svg viewBox="0 0 74 74" fill="currentColor" xmlns="http://www.w3.org/2000/svg">
  <path d="M69 27.3c1.3 0 2.4.5 3.3 1.4.9.9 1.3 2 1.3 3.2 0 1.3-.4 2.3-1.3 3.2-.9 1-2 1.4-3.2 1.4h-.5L64.5 60c-.2 1.1-.8 2-1.6 2.7-.9.8-1.8 1.1-3 1.1H14.5c-1.1 0-2-.3-3-1A4.4 4.4 0 0 1 10 60l-4-23.5h-.6C4 36.5 2.9 36 2 35c-.8-.9-1.3-2-1.3-3.2 0-1.3.5-2.3 1.3-3.2 1-1 2-1.4 3.3-1.4H69zM18 55.8c.6 0 1.1-.3 1.5-.8.5-.4.6-1 .6-1.6l-1.2-14.8c0-.7-.3-1.2-.8-1.6-.4-.4-1-.6-1.6-.5-.6 0-1.1.3-1.6.8-.4.5-.6 1-.5 1.6l1.1 14.8c0 .6.3 1.1.8 1.5.4.4 1 .6 1.5.6h.2zm14.6-2.2V38.7c0-.6-.2-1.1-.7-1.6-.4-.4-1-.6-1.6-.6-.6 0-1.1.2-1.6.6-.4.5-.6 1-.6 1.6v14.9c0 .6.2 1.1.6 1.6.5.4 1 .6 1.6.6a2.2 2.2 0 0 0 2.3-2.3zm13.7 0V38.7c0-.6-.2-1.1-.7-1.6-.4-.4-1-.6-1.6-.6-.6 0-1.1.2-1.6.6-.4.5-.7 1-.7 1.6v14.9c0 .6.3 1.1.7 1.6.5.4 1 .6 1.6.6.6 0 1.2-.2 1.6-.6.5-.5.7-1 .7-1.6zm12.5.1L60 39c0-.6-.2-1.1-.6-1.6-.4-.5-1-.8-1.5-.8-.6 0-1.2.1-1.7.5s-.7 1-.8 1.6l-1.1 14.8c0 .6.1 1.2.5 1.6.4.5 1 .8 1.6.8h.2c.5 0 1-.2 1.5-.6.4-.4.7-.9.7-1.5zM17.7 10.4l-3.3 14.7H9.7l3.5-15.7c.5-2.1 1.6-3.8 3.2-5.1a9 9 0 0 1 5.7-2h6c0-.6.2-1.2.6-1.6.5-.5 1-.7 1.6-.7H44c.6 0 1.2.2 1.6.7.5.4.7 1 .7 1.6h6a9 9 0 0 1 8.8 7l3.6 15.8H60l-3.3-14.7c-.3-1-.8-1.9-1.6-2.6-.8-.6-1.8-1-2.9-1h-5.9c0 .7-.2 1.2-.7 1.6-.4.5-1 .7-1.6.7H30.3c-.6 0-1.1-.2-1.6-.7-.4-.4-.6-1-.6-1.6h-6c-1 0-2 .4-2.8 1-.8.7-1.4 1.6-1.6 2.6z" />
</svg>
