<svg width="263" height="58" fill="none" xmlns="http://www.w3.org/2000/svg">
  <path d="M59 55.1c.7 1 1.7 1.8 3 2" stroke="#7B463F" stroke-width=".6"/>
  <path d="M62 57.1c1.4.2 2.7 0 3.9-.7a.3.3 0 0 1 .3 0c2.5 1.6 5 1.3 7.2-.6 2.3-2 3.6-4.6 3.9-7.8l.1-.3c.5-.4 1.9-1.4 1.1-2.1" stroke="#925648" stroke-width=".6"/>
  <path d="M78.5 45.6c1.4-1.4 2.5-3 3.4-4.6l.3-.2c.2 0 .3-.1.3-.3" stroke="#23071D" stroke-width=".6"/>
  <path d="M82.5 40.5c1.5.6 2.8 1.3 4 2.3.4.3.8.4 1.2.5a.2.2 0 0 0 .2-.1.1.1 0 0 0 0-.2 6 6 0 0 1-1.4-1.8c-.2-.4-.2-.4 0 0a10 10 0 0 0 4.5 3.4c.1.1.2 0 .1 0l-.2-2s0 0 0 0 0 0 0 0c.8 2.6 2.6 3.5 4.5 5" stroke="#925648" stroke-width=".6"/>
  <path d="M95.4 47.6c-.1.3 0 .6.3.7 2.3.8 6.1 1 7.7-1.1l.2-.2a18.2 18.2 0 0 1 6.1 1.3h.3c1.9-1.3 3.8-3 3.5-5.5 0 0 0 0 0 0s0 0 0 0 0 0 0 0 0 0 0 0c1.1.4 2 .2 2.8-.6l.2-.1 2.4-.2a.6.6 0 0 0 .5-1c-.9-1.6-5.5-1.4-7-1.3l-.3-.1-4.3-3.2" stroke="#543C51" stroke-width=".6"/>
  <path d="M107.8 36.3c-.8-1-1.7-1.2-3-.9" stroke="#6E3C3C" stroke-width=".6"/>
  <path d="M104.9 35.4c-1.4-1.7-2.5-3.6-3.8-5.3a73.9 73.9 0 0 1-3.5-4.7c-.6-1-1.5-1.3-2.4-1.8" stroke="#925648" stroke-width=".6"/>
  <path d="M95.2 23.6c0-2.4-2.7-3.4-4.6-4" stroke="#493042" stroke-width=".6"/>
  <path d="M90.6 19.7c-.2-.3-.5-.4-.9-.3" stroke="#41273A" stroke-width=".6"/>
  <path d="M89.7 19.4l-8-1.3h0v-.2l.2-.1" stroke="#824E40" stroke-width=".6"/>
  <path d="M81.9 17.8l-.1-.4" stroke="#96643D" stroke-width=".6"/>
  <path d="M81.8 17.4c.6-.7-.1-1.4-.7-1.8" stroke="#361C30" stroke-width=".6"/>
  <path d="M81.1 15.6a24 24 0 0 1 0-3.9c0-1.2.6-2.3 1.2-3.3 1.5-2.7-.2-3.9-2.4-5.2-2.4-1.4-5-1.9-8-1.5" stroke="#41273A" stroke-width=".6"/>
  <path d="M72 1.7c-1.5-.6-3-1-4.6-.5-3.6 1-7.4.6-11.4 1.4" stroke="#8F4C41" stroke-width=".6"/>
  <path d="M56 2.6c-2.8.4-5 2.2-6.6 4.4v.3c1.7 2 3.6 4.4 3.7 7.1" stroke="#96643D" stroke-width=".6"/>
  <path d="M53.1 14.4c0 .4-.3.6-.6.6-.1 0-.2 0-.2.2l-.2 2.3" stroke="#381621" stroke-width=".6"/>
  <path d="M52.1 17.5c.2.3.1.8 0 1.5" stroke="#96643D" stroke-width=".6"/>
  <path d="M52.1 19h-1c-1.8-.1-6.5-.8-8 .6" stroke="#824E40" stroke-width=".6"/>
  <path d="M43 19.6c-2 .4-3.4 1.6-4.2 3.6" stroke="#361C30" stroke-width=".6"/>
  <path d="M38.8 23.2c-1.2.9-2.5 1.2-3.4 2.5-1.4 2.1-3 4.2-4.6 6.1" stroke="#925648" stroke-width=".6"/>
  <path d="M72 1.7c-.4.3-.5.6-.4 1l.2.2A18.1 18.1 0 0 0 76 4L78.4 6V6c-.4.6-1.3 1.7-1.3 2.4l.2.1h.5c.2 0 .2.1.2.3v5.6" stroke="#A06F45" stroke-width=".6"/>
  <path d="M78 14.5l-3-.6" stroke="#95643B" stroke-width=".6"/>
  <path d="M75 14l-.5-1.4" stroke="#985D2C" stroke-width=".6"/>
  <path d="M74.5 12.6c.7 0 1-.3 1-1a1332 1332 0 0 0-.2-5.9C74 4 71.8 3.4 69.7 3.2a52.4 52.4 0 0 0-13.6 0l-.1-.6" stroke="#F5AB48" stroke-width=".6"/>
  <path d="M81.1 15.6l-3-1.1" stroke="#473F34" stroke-width=".6"/>
  <path d="M74.5 12.6c-3.5-6.2-12-4.8-13.8 1.9l-.2.2-2.5.6-4.5.6a.3.3 0 0 1-.3-.3v-1.2" stroke="#9F7528" stroke-width=".6"/>
  <path d="M75 14l.4 2" stroke="#3F2E1B" stroke-width=".6"/>
  <path d="M75.4 16l-.2 1.8" stroke="#9F7528" stroke-width=".6"/>
  <path d="M75.2 17.8v.1c-.1.2-.2.2-.3 0 0 0-.1-.1 0-.2" stroke="#8B602B" stroke-width=".6"/>
  <path d="M74.8 17.7c.3-2.1-.1-4-1.1-5.5a6.8 6.8 0 0 0-11.1-.4 7.4 7.4 0 0 0-1.5 6" stroke="#9F7528" stroke-width=".6"/>
  <path d="M61.2 17.9c-.1.3-.3.4-.4.2" stroke="#8B602B" stroke-width=".6"/>
  <path d="M60.8 18.1c0-.4 0-.7-.3-1a141.8 141.8 0 0 0-4.5.7c-.7.1-2 0-3.9-.3" stroke="#9F7528" stroke-width=".6"/>
  <path d="M74.8 17.7c-3.6.3-7.4.3-11.3-.1-.8 0-1.5 0-2.3.3" stroke="#E9AE46" stroke-width=".6"/>
  <path d="M81.8 17.4c-.6-.9-4.6-1.2-6.4-1.4" stroke="#9C7C36" stroke-width=".6"/>
  <path d="M81.9 17.8h-.3c0 .1-.2.2-.3.1-2-.4-3.9 0-6 0 0 .1 0 0 0 0v-.1" stroke="#E9AE46" stroke-width=".6"/>
  <path d="M30.8 31.8c-.6 1.3-1.4 2.5-2.4 3.5" stroke="#8D5643" stroke-width=".6"/>
  <path d="M28.4 35.3c-1.2-.1-2.3.2-3.1 1.1" stroke="#693C37" stroke-width=".6"/>
  <path d="M25.3 36.4l-4 3.1H21c-1.4 0-6.7-.2-7 1.6a.7.7 0 0 0 .3.7l.3.1 2.2.1c.1 0 .2 0 .3.2.7.8 1.6 1 2.6.5a.1.1 0 0 1 .2.1c0 2.7 1.5 4.2 3.6 5.5h.3c1.9-.7 3.8-1.1 5.7-1.4l.3.1c2 2.3 5.2 2.3 7.9 1.3l.2-.2v-.5" stroke="#4E3B4B" stroke-width=".6"/>
  <path d="M38 47.6c1.7-1.4 3.4-2.3 4.2-4.7h.1c.2.2-.2 1.4-.2 1.6a.1.1 0 0 0 0 .1.1.1 0 0 0 0 0c2-.6 3.5-1.9 4.6-3.7.4-.6.4-.6.2 0a11 11 0 0 1-1.4 2.2c-.1.2 0 .3.2.2.8 0 1.5-.5 2-1.3l.1-.2c1.2-.6 2.3-1 3.5-1.4" stroke="#8D5643" stroke-width=".6"/>
  <path d="M51.3 40.4a12 12 0 0 0 3.6 9.2l2.4 1.9.1.3c.3 1.2.9 2.3 1.5 3.3" stroke="#764539" stroke-width=".6"/>
  <path d="M60.8 18.1h-.2l-.2.1c-.9-.1-1.7.3-2.3.4-2 .3-4 .5-6 .4" stroke="#E9AE46" stroke-width=".6"/>
  <path d="M89.7 19.4l.8.3" stroke="#947144" stroke-width=".6"/>
  <path d="M90.5 19.7v.2l-.2.1c-1.6 0-3.1-.4-4.7-.7-1.2-.2-2.6-.2-4-.5a8.7 8.7 0 0 0-3.7.2" stroke="#9C7A4C" stroke-width=".6"/>
  <path d="M77.9 19a315 315 0 0 0-14.3-.5" stroke="#73512A" stroke-width=".6"/>
  <path d="M63.6 18.5l-3.3.6c-1.3 0-2.3.2-3.6.6-2.4.6-4.8.6-7.1 0-.7-.3-1.2-.3-1.8-.3l-4.7.2" stroke="#896639" stroke-width=".6"/>
  <path d="M63.6 18.5a33.3 33.3 0 0 1-3.6 4.2h-1.5-.2l-.5-.1" stroke="#261F1A" stroke-width=".6"/>
  <path d="M57.8 22.6c-.9-.7-1.8-.7-2.8-.3" stroke="#2A1F17" stroke-width=".6"/>
  <path d="M55 22.3l-.4-.3" stroke="#593E28" stroke-width=".6"/>
  <path d="M54.6 22a3 3 0 0 0-1.6-.6" stroke="#896639" stroke-width=".6"/>
  <path d="M53 21.4c-.3-.2-.6-.2-1-.2" stroke="#593E28" stroke-width=".6"/>
  <path d="M52 21.2a18 18 0 0 0-5.6-.5" stroke="#996E42" stroke-width=".6"/>
  <path d="M46.4 20.8c-.5-.1-.9 0-1.2.3" stroke="#755436" stroke-width=".6"/>
  <path d="M45.2 21.1l-6.4 2.1" stroke="#996E42" stroke-width=".6"/>
  <path d="M77.9 19c2.3.2 4.6.7 6.8 1.6" stroke="#3A332C" stroke-width=".6"/>
  <path d="M84.7 20.6l-3.4.6" stroke="#835932" stroke-width=".6"/>
  <path d="M81.3 21.1a2 2 0 0 0-1.3.3" stroke="#432918" stroke-width=".6"/>
  <path d="M80 21.4c-.5 0-1 .3-1.4.6" stroke="#73512A" stroke-width=".6"/>
  <path d="M78.6 22c-1.4-.5-3.6-1-4.8.3l-4 4.4c-1.5 1.6-1.2 3.8-.2 5.5l.3.2.9.2s.2 0 .2.2c.6.7 1.3 1 2.2 1" stroke="#3A332C" stroke-width=".6"/>
  <path d="M73.2 33.8c-.7.2-1.2.6-1.6 1.2v.2c.3.3.4.7.4 1" stroke="#835932" stroke-width=".6"/>
  <path d="M72 36.3v.5l1.4.4" stroke="#73512A" stroke-width=".6"/>
  <path d="M73.4 37.2l1.4.2" stroke="#432918" stroke-width=".6"/>
  <path d="M74.8 37.4c1 .2 1.6.6 2.2 1.1" stroke="#835932" stroke-width=".6"/>
  <path d="M77 38.5v.7c-.2.1-.3.1-.4 0l-.4-.2h-.3c-.6.1-1 .4-1.4 1h-.2a.7.7 0 0 1-.4-.2" stroke="#858181" stroke-width=".6"/>
  <path d="M74 39.8v-.1l-.2-.1c-.5 0-4.3 0-4.5.4l.1.2c.2 0 .4.2.4.5" stroke="#312A24" stroke-width=".6"/>
  <path d="M69.8 40.7c-1.4-.6-2.5-.3-3.3.9h-.2c-.5-1-1.3-1.2-2.4-.9-.2 0-.3 0-.4-.2" stroke="#858181" stroke-width=".6"/>
  <path d="M63.5 40.5l.3-.2v-.1h0c0-.2-.1-.2-.2-.1l-.2.3" stroke="#473C28" stroke-width=".6"/>
  <path d="M63.4 40.4l-.3-.2" stroke="#858181" stroke-width=".6"/>
  <path d="M63.1 40.2c.2-.2.1-.3 0-.3l-4.1-1" stroke="#73512A" stroke-width=".6"/>
  <path d="M59 39c-.6-.3-1.1-.4-1.7-.3" stroke="#312A24" stroke-width=".6"/>
  <path d="M57.3 38.7c-.3 0-.5-.1-.7-.3" stroke="#858181" stroke-width=".6"/>
  <path d="M56.6 38.4c.1-.3.4-.5.7-.5" stroke="#835932" stroke-width=".6"/>
  <path d="M57.3 37.9c.5.5 1 .6 1.6.5" stroke="#432918" stroke-width=".6"/>
  <path d="M58.9 38.4c1.2.5 2.5.9 4 1" stroke="#835932" stroke-width=".6"/>
  <path d="M62.8 39.4c.2.2.3.3.5.3s.2 0 .2-.2l-.6-1" stroke="#5F3F26" stroke-width=".6"/>
  <path d="M62.9 38.4l-.5-.5" stroke="#432918" stroke-width=".6"/>
  <path d="M62.4 38a4 4 0 0 1-1.2-1.1" stroke="#5F3F26" stroke-width=".6"/>
  <path d="M61.2 36.9l.2-.3" stroke="#835932" stroke-width=".6"/>
  <path d="M61.4 36.6v-.5" stroke="#432918" stroke-width=".6"/>
  <path d="M61.4 36.1a5 5 0 0 1 2.8 3c.1.5.4.7 1 .9h.3c.6-.3 1-.6 1-1 .7-2 2.1-3.2 4.2-3.4l.3-.1c.6-.8.6-2.4-.8-2.5l-.3.1-2.6 2.6c-.1.1-.2 0-.2 0V34c0-1.2-.4-2.6-.2-4 .1-1 0-2-.6-2.9l-.2-.2c-2-.7-2.2.8-2.4 2.3" stroke="#835932" stroke-width=".6"/>
  <path d="M63.7 29.1l-.2.9c0 .1 0 .2-.1 0L63 30l-.1-.3.4-1.7v-.3c-.2-.6 0-1 .6-1 .7-.3.7-.3 0-.2-.7.2-1.3.4-1.8.8v.3l-.1 2h-.2l-.1-.1" stroke="#261F1A" stroke-width=".6"/>
  <path d="M61.7 29.4v-1.7l-.1-.2a26.4 26.4 0 0 0-4-4.7" stroke="#3A332C" stroke-width=".6"/>
  <path d="M57.6 22.8v-.1l.1-.1h.1" stroke="#140A07" stroke-width=".6"/>
  <path d="M60.1 23H59a.1.1 0 0 0-.1.3l2.8 3.5h.3a6.4 6.4 0 0 1 7 .1h.2l3.3-3.6a.2.2 0 0 0-.1-.3c-1.4.4-3.6-3.2-5.2-3.6-1.1-.3-3.3-.3-4 .5a102.1 102.1 0 0 1-3 3.2z" stroke="#3A332C" stroke-width=".6"/>
  <path d="M90.5 19.7h.1" stroke="#5B5346" stroke-width=".6"/>
  <path d="M95.2 23.6c-2.1-.9-4.3-1.6-6.6-2.2" stroke="#AC8254" stroke-width=".6"/>
  <path d="M88.6 21.4c-.7-.5-1.5-.8-2.4-.7" stroke="#886848" stroke-width=".6"/>
  <path d="M86.2 20.7l-1.5-.1" stroke="#AC8254" stroke-width=".6"/>
  <path d="M88.6 21.4l5.7 3.8v.1h0-.1-.2c-2.4-1.8-5-3.3-7.8-4.6" stroke="#D18E4E" stroke-width=".6"/>
  <path d="M52 21.2c0 .5.2.9.5 1.2l.3.2c.7.2 1.4 0 2-.3h.2" stroke="#B57840" stroke-width=".6"/>
  <path d="M55 22.3c-.1.6-.4 1.1-.8 1.6a.7.7 0 0 1-1 0 7.8 7.8 0 0 0-9-.7c-3.4 2-4.9 5.3-4.2 9.8" stroke="#86592F" stroke-width=".6"/>
  <path d="M40 33l-1 1c-.7 1-1.6 1.7-2.6 2.6l-.1.3v.6l-.1.3c-.5.6-.9 1.2-1.1 2" stroke="#D18E4E" stroke-width=".6"/>
  <path d="M35.1 39.8c-1 .9-2.1 1.7-3.3 2.4-.2 0-.2.2 0 .3.1.2.1.4-.2.5-.3.1-.2.2.1.2.3 0 .5-.1.6-.4v-.1l-.2-.1c-.2 0-.2-.2 0-.3a19.6 19.6 0 0 1 4.2-2.6c.1-.2.6-1 .9-1 0 0 .1.1 0 .2a7.2 7.2 0 0 0-1.6 3.9c0 .3 0 .3.2 0l1.2-3" stroke="#B57840" stroke-width=".6"/>
  <path d="M37 39.9c.3.3.5.3.7.2 2.2-1.6 4.5-2.2 7-2" stroke="#D18E4E" stroke-width=".6"/>
  <path d="M44.7 38c4.4 1.2 7.8 0 10.1-3.8" stroke="#86592F" stroke-width=".6"/>
  <path d="M54.8 34.2c.1-.3.4-.4.7-.3" stroke="#BA8B50" stroke-width=".6"/>
  <path d="M55.5 33.9l.8-.2" stroke="#9B6833" stroke-width=".6"/>
  <path d="M56.3 33.7h.9" stroke="#835932" stroke-width=".6"/>
  <path d="M57.2 33.6H59" stroke="#AC8254" stroke-width=".6"/>
  <path d="M59 33.5l1.3.2h.3c1.2-1 1.4.2 2 .7.6.3.6.2.3-.3-2.1-3 1.5-2.5.8-5" stroke="#996E42" stroke-width=".6"/>
  <path d="M61.4 36.1c-.8 0-2-.4-2.6.4-.2.3-.1.5.2.7.6.3 1-1 2.4-.6" stroke="#B57840" stroke-width=".6"/>
  <path d="M61.2 36.9h-.6c-.1 0-.1.1 0 .2.5.5 1 1 1.2 1.6 0 .1.1.2.3.2l.8.2c.1 0 .2 0 .1.2l-.2.1" stroke="#D18E4E" stroke-width=".6"/>
  <path d="M58.9 38.4c-.1-.4-.3-.7-.6-1H58l-.7.5" stroke="#B57840" stroke-width=".6"/>
  <path d="M56.6 38.4c-.3 0-.5.2-.5.4" stroke="#F7D0A9" stroke-width=".6"/>
  <path d="M56 38.8l-.3.6" stroke="#996E42" stroke-width=".6"/>
  <path d="M55.7 39.4c-.5 0-1 0-1.3.3" stroke="#86592F" stroke-width=".6"/>
  <path d="M54.4 39.7c-1 0-2.1.2-3 .7" stroke="#DE9851" stroke-width=".6"/>
  <path d="M38 47.6c-1.2-.2-3 .1-3.6-1" stroke="#B78E63" stroke-width=".6"/>
  <path d="M34.4 46.6l-1.8-2.2c-.8-1-2-1.3-3.3-1.4L29 43c-2.3-1.7-1.9-4.7-.9-7" stroke="#9B6833" stroke-width=".6"/>
  <path d="M28.1 35.9l.3-.6M45.2 21.1a53.3 53.3 0 0 0-2.2 1.7 28 28 0 0 0 3.4-2M104.9 35.4l.1.3" stroke="#D18E4E" stroke-width=".6"/>
  <path d="M105 35.7c1 2 1.4 5 0 6.7-.8.7-1.9.8-2.8 1" stroke="#9B6833" stroke-width=".6"/>
  <path d="M102.2 43.3l-.7-.5v-.2l.2-.2v-.1a30 30 0 0 1-3.8-2.9" stroke="#86592F" stroke-width=".6"/>
  <path d="M97.9 39.4c-.1-.6-.4-1-.8-1.3l-.1-.3c0-.7-.2-1.1-.4-1.3a32.3 32.3 0 0 1-3.3-3.7" stroke="#D18E4E" stroke-width=".6"/>
  <path d="M93.3 32.8c.3-3.3.2-5.5-2-7.9-3.4-3.6-7.6-3.5-11.5-.9h-.3c-.7-.2-1.1-.8-1.1-1.6" stroke="#86592F" stroke-width=".6"/>
  <path d="M78.4 22.4h.3" stroke="#E5A052" stroke-width=".6"/>
  <path d="M78.7 22.3c1.3.7 2.2.3 2.6-1.1" stroke="#B57840" stroke-width=".6"/>
  <path d="M78.7 22.3c.4-.2 1.8-.2 1.3-1M53 21.4c.4.7 1 .9 1.6.6" stroke="#A57038" stroke-width=".6"/>
  <path d="M55 22.3s0 0 0 0" stroke="#462915" stroke-width=".6"/>
  <path d="M78.4 22.4v-.2" stroke="#765127" stroke-width=".6"/>
  <path d="M78.4 22.2l.2-.2" stroke="#9C7A4C" stroke-width=".6"/>
  <path d="M78.4 22.2a1 1 0 0 0-.6.7" stroke="#3D3229" stroke-width=".6"/>
  <path d="M77.8 22.9c-.8.3-1.4.8-1.9 1.5v.3c1.8.9.4 2.4-.3 3.3" stroke="#AC8254" stroke-width=".6"/>
  <path d="M75.6 28l.4-1.2v-.3l-.3-1a.1.1 0 0 0-.2 0s0 0 0 0c-.3.8-.5 1.5-.4 2.3v.3l.4.2" stroke="#9C7A4C" stroke-width=".6"/>
  <path d="M75.5 28.3c.2.6.6 1 1 1.4a.3.3 0 0 0 .3 0v-.1l2.4-4.6" stroke="#AC8254" stroke-width=".6"/>
  <path d="M79.2 25l1-.2h.3c.6-.5 1.3-.8 2-1" stroke="#3D3229" stroke-width=".6"/>
  <path d="M82.5 23.9a8.4 8.4 0 0 0-3.2 2.8" stroke="#AC8254" stroke-width=".6"/>
  <path d="M79.3 26.7a7.2 7.2 0 0 0-.3 7.5" stroke="#AE964B" stroke-width=".6"/>
  <path d="M79 34.2l.2.6" stroke="#AC8254" stroke-width=".6"/>
  <path d="M79.2 34.8h-.4" stroke="#3D3229" stroke-width=".6"/>
  <path d="M78.8 34.8c-.2-.4-.5-.7-.8-.8-1.3-.3-3-.4-4.8-.2" stroke="#AC8254" stroke-width=".6"/>
  <path d="M57.6 22.8c-.5-.3-1.1-.4-1.7-.2" stroke="#3D3229" stroke-width=".6"/>
  <path d="M55.9 22.6h-.3c-.1 0-.2 0-.1.1.3 1.2-.1 2-1.4 2.2" stroke="#86592F" stroke-width=".6"/>
  <path d="M54.1 25l-3-1.3c-1-.5-3-.7-4-.6-5.1.3-8 4.7-6.3 9.5" stroke="#4B3C25" stroke-width=".6"/>
  <path d="M40.8 32.6c1.3 3 3.5 4.6 6.8 4.7" stroke="#352A21" stroke-width=".6"/>
  <path d="M47.6 37.3c1.5.2 2.8 0 4-.8" stroke="#86592F" stroke-width=".6"/>
  <path d="M51.7 36.5a7.3 7.3 0 0 0 2.9-2.6" stroke="#886D26" stroke-width=".6"/>
  <path d="M54.6 34s0 0 0 0h.2v.2" stroke="#4B3C25" stroke-width=".6"/>
  <path d="M44.7 38c-1.2-.6-2.1-1.3-3.5-.7-1 .5-2 .6-2.8.5" stroke="#623F23" stroke-width=".6"/>
  <path d="M38.4 37.8l-.2-.1" stroke="#462915" stroke-width=".6"/>
  <path d="M38.2 37.7c.5-.5.8-1 1.4-1.3.5-.3.9-.8 1.2-1.3v-.3L40 33M93.3 32.8l-.8 2.1v.3c.4.6.9 1 1.5 1.4l.8.8c1 .8 2 1.5 3 2" stroke="#623F23" stroke-width=".6"/>
  <path d="M102.2 43.3h-.1" stroke="#2C1808" stroke-width=".6"/>
  <path d="M102 43.3c-.6 0-1-.3-.9-.9v-.3a16 16 0 0 0-4-2.3l-.2-.3" stroke="#86592F" stroke-width=".6"/>
  <path d="M96.9 39.5c-.3-.4-.6-.6-1-.7" stroke="#462915" stroke-width=".6"/>
  <path d="M95.9 38.8c-.5-.9-1.3-1.2-2.4-1h-.3c-2-1.2-2.9-.6-4.7.4" stroke="#623F23" stroke-width=".6"/>
  <path d="M88.5 38.2c-3.9 1-7.6.2-9.7-3.4M79.2 34.8c1 1.2 2.1 2 3.6 2.5" stroke="#86592F" stroke-width=".6"/>
  <path d="M82.8 37.3c4.7 1.4 9.4-1.4 10-6.4" stroke="#352A21" stroke-width=".6"/>
  <path d="M92.8 31c.4-5.2-4-8.5-8.8-7.5" stroke="#483E38" stroke-width=".6"/>
  <path d="M84 23.5l-1.5.4M79.2 25c-1.3-.3-1.8-1-1.4-2.1" stroke="#86592F" stroke-width=".6"/>
  <path d="M55.9 22.6c0 .5 1.2 1.2 1.5 1.8v.2c-1.6.6-.8 2.3.1 3.1.3.2.4.2.1-.1-.4-.7-.4-1.3 0-2 0-.2.1-.2.2 0 .8 1.8.4 3.1-1.3 4" stroke="#AC8254" stroke-width=".6"/>
  <path d="M56.5 29.7l-.6-1.1" stroke="#835932" stroke-width=".6"/>
  <path d="M56 28.6c0-.4 0-.6-.2-.8-.7-1-1.3-1.9-1.7-2.9" stroke="#BA8B50" stroke-width=".6"/>
  <path d="M61.7 29.4c0 1 .2 2-.4 2.8-.6.7-1.3 1.2-2.3 1.3" stroke="#50483C" stroke-width=".6"/>
  <path d="M57.2 33.6c-.4-.1-.6-.4-.6-.7v-3.2" stroke="#3A332C" stroke-width=".6"/>
  <path d="M75.5 28.3V28" stroke="#E5A052" stroke-width=".6"/>
  <path d="M56 28.6v3.3" stroke="#473C28" stroke-width=".6"/>
  <path d="M56 31.9c-.4.6-.6 1.2-.5 2" stroke="#604B29" stroke-width=".6"/>
  <path d="M54.6 34a8 8 0 0 0-.8-7.7" stroke="#BCA047" stroke-width=".6"/>
  <path d="M53.8 26.3a6.2 6.2 0 0 0-6-2.6" stroke="#BA8B50" stroke-width=".6"/>
  <path d="M47.8 23.7c-1.1 0-2.2.2-3.2.6-.9.4-1.3 1-1.9 1.7a6.2 6.2 0 0 0-1.5 6.3c0 .1-.1.3-.4.3" stroke="#685C42" stroke-width=".6"/>
  <path d="M92.8 31h-.2c-.1 0-.2 0-.2-.2 0-3-2.4-6.7-5.6-7h-.2l-.2.3" stroke="#655F55" stroke-width=".6"/>
  <path d="M86.4 24c-.8 0-1.6-.1-2.4-.5" stroke="#B78E63" stroke-width=".6"/>
  <path d="M47.8 23.7c-6.2 1.7-7.6 10.6-1.3 13.1l1 .5M86.4 24c3 1.5 4.4 3.7 4.4 6.6-.1 4-2.7 6.5-6.6 6.5-.5 0-1 0-1.4.2" stroke="#A4794C" stroke-width=".6"/>
  <path d="M79 34.2c.6.2 1.1.6 1.5 1.1 0 .1 0 .2.2.2 1.3 1 2.7 1.3 4.3 1l.3-.2.7-.2h.3l1-.8s.1-.1 0-.2a13 13 0 0 0-4.1-6.3c-1.4-1.2-2.2-2.2-3.9-2.1" stroke="#F7BD51" stroke-width=".6"/>
  <path d="M89.8 31c.5-4-2.4-7.2-6.3-6.6a2 2 0 0 0-1.3.7v.3l.6.9c1.4 1.3 5.8 5.6 6.9 4.9l.1-.3z" stroke="#EDC27D" stroke-width=".6"/>
  <path d="M53.8 26.3a15.3 15.3 0 0 0-8 9.3.4.4 0 0 0 .5.4c.5 0 .8.1 1.2.4l.3.1c1.3.2 2.6.2 3.9 0" stroke="#F7BD51" stroke-width=".6"/>
  <path d="M49.8 27l1.2-1.5a.6.6 0 0 0 0-.7l-.3-.1c-4-1.8-8.1 2-7.1 6.2a.6.6 0 0 0 1 .4c1.8-1.3 3.5-2.7 5.2-4.3z" stroke="#EDC27D" stroke-width=".6"/>
  <path d="M56.3 33.7l-.2-1.8" stroke="#29190B" stroke-width=".6"/>
  <path d="M38.2 37.7c-1 .8-2 1.5-3.1 2" stroke="#915E34" stroke-width=".6"/>
  <path d="M88.5 38.2c2-.3 4 0 5.5 1a6 6 0 0 0 2.4.8" stroke="#D18E4E" stroke-width=".6"/>
  <path d="M96.4 40c.5.8.8 1.8 1 2.7l.2.1s0 0 0 0c-.1-1.2-.5-2.2-1-3.2" stroke="#9B6833" stroke-width=".6"/>
  <path d="M96.6 39.6l.3-.1" stroke="#B57840" stroke-width=".6"/>
  <path d="M102 43.4c-.4.2-.7.2-1 .6l-2.1 2.6" stroke="#9B6833" stroke-width=".6"/>
  <path d="M98.9 46.6l-.3.4-.2.2-3 .4" stroke="#B78E63" stroke-width=".6"/>
  <path d="M82.5 40.5a7 7 0 0 0-3.2-.6s0 0 0 0c-1.1 4.4-4.1 6.1-6.5 9.5-1 1.4-2.2 2.9-4 1.7 0 0 0 0 0 0 2.6-.9 4.6-2.5 6-4.8v-.4l.1-.3A17.3 17.3 0 0 0 78 38a.1.1 0 0 0 0 0l-.3.3" stroke="#86592F" stroke-width=".6"/>
  <path d="M77.7 38.4c-.2-.1-.5 0-.7.1" stroke="#F7D0A9" stroke-width=".6"/>
  <path d="M74.8 37.4c-.1-.7-.4-1-1-1.3-.4-.1-.9 0-1.5.2" stroke="#B57840" stroke-width=".6"/>
  <path d="M72.3 36.3H72" stroke="#E5A052" stroke-width=".6"/>
  <path d="M107.8 36.3c-.3.3-.4.6-.3 1 0 .3 1.9 1.5 2.3 2v.1h0c0 .1-.1.1-.2 0l-1.7-1c-.1-.2-.2-.2-.3 0l-.2 1.2c0 .2 0 .2.2.3l2.9 1.8v.2h-.2l-2.8-1.4a.4.4 0 0 0-.5.1c-1 1.6-2 3-3.2 4.3h-.2l-.1-.3" stroke="#937457" stroke-width=".6"/>
  <path d="M103.5 44.6c1.8-2 5.4-6.6 1.7-9l-.2.1M28.1 35.9c-.9.3-1.4 1-1.4 2-.1 2.8 1 4.2 2.5 6.2" stroke="#774E27" stroke-width=".6"/>
  <path d="M29.2 44l-.1.4h-.3a19.2 19.2 0 0 1-2.8-4 .2.2 0 0 0-.2 0l-4 2.3h-.2c0-.3 2.8-2 4-2.7.1 0 .2-.1.1-.3l-.5-1.5V38l.5-1v-.1c-.3 0-.4-.2-.4-.4" stroke="#937457" stroke-width=".6"/>
  <path d="M103.5 44.6a14 14 0 0 1-3.3 2L99 47c-.2 0-.2 0-.2-.2v-.1M34.4 46.6c-1.4.7-4-1.6-5.2-2.5" stroke="#5D4D3C" stroke-width=".6"/>
  <path d="M73.4 37.2c.1-.1.2-.3.1-.4 0-.1 0-.2-.2-.2l-1-.3" stroke="#A57038" stroke-width=".6"/>
  <path d="M62.4 38l-.2.2v.2h.7M37 39.9c.3-.8.7-1.5 1.4-2M95.9 38.8c0 .3.1.5.4.7" stroke="#915E34" stroke-width=".6"/>
  <path d="M96.3 39.5v.5" stroke="#774E27" stroke-width=".6"/>
  <path d="M78.5 45.6c-.3-.3-.7-.5-1-.6l-.2.1a17 17 0 0 1-5.6 6.5c-1.2.9-3 .6-4.2.1" stroke="#86592F" stroke-width=".6"/>
  <path d="M67.5 51.7c-.2-.2-.4-.3-.7-.2" stroke="#462915" stroke-width=".6"/>
  <path d="M66.8 51.5c-2.2.3-3.9 2.5-6 .1a8 8 0 0 1-1.3-2.3.1.1 0 0 1 .2 0c1.2 1.4 2.7 3 4.7 1.6v-.2a8.5 8.5 0 0 1-3.3-2.2.1.1 0 0 1 .2-.1l1.5.7" stroke="#86592F" stroke-width=".6"/>
  <path d="M62.8 49.1c3 1.4 6 1.1 8.8-.7" stroke="#483E38" stroke-width=".6"/>
  <path d="M71.6 48.4c.3 0 .4 0 .5-.2v-.1h-.6" stroke="#623F23" stroke-width=".6"/>
  <path d="M71.5 48.1c.2-.5.6-.5 1-.7 1-.8 1.7-1.8 2-3 .1-.1 0-.2 0-.2l-1-.5h-.2l-1 .5h-.4l-.9-.4v-.1-.1s0-.1.1 0c.6.4 1.2.4 1.8-.1l.2-.1h1c0 .2.1.1.2 0 1.7-1.2 2.9-3 3.4-5" stroke="#88817E" stroke-width=".6"/>
  <path d="M71.5 48.1H71" stroke="#B9B6B2" stroke-width=".6"/>
  <path d="M71 48.1l-.5-.3h-.3c-.6.5-1.2.5-1.8.1h-.2c-.6.5-1.2.4-1.6-.2h-.3l-.7.6h-.3l-.3-.5h-.2c-.5.6-1 .6-1.5 0l-.3-.1c-.2 0-.4 0-.5.3l-.2.1a1 1 0 0 1-.9-.1" stroke="#858181" stroke-width=".6"/>
  <path d="M61.4 48a17.8 17.8 0 0 1-2.7-3.4v-.1l1-1.2s.1-.1.2 0l1.3 1h.3l.7-.7c.1 0 .1-.1 0-.2-.2 0-.5.3-.7.5h-.3l-1.2-1c-.1-.2-.2-.2-.3 0l-.6.3h-.3a9 9 0 0 1-2.5-3" stroke="#88817E" stroke-width=".6"/>
  <path d="M56.3 40.3l-.2-1.5" stroke="#9B9691" stroke-width=".6"/>
  <path d="M57.3 38.7v.2" stroke="#A6A19B" stroke-width=".6"/>
  <path d="M57.3 39c-.1.1-.2.3 0 .6 0 0 0 0 0 0 .9-.4 1.5-.3 2 .4h.3c.7-.2 1.2 0 1.5.6h.3l1.3-.4" stroke="#88817E" stroke-width=".6"/>
  <path d="M62.7 40.2h.4" stroke="#E7C8A1" stroke-width=".6"/>
  <path d="M63.4 40.4h.1" stroke="#BCB39F" stroke-width=".6"/>
  <path d="M69.8 40.7c.7-.5 1.5-.7 2.2-.4h.3c.5-.4 1-.6 1.6-.5" stroke="#A6A19B" stroke-width=".6"/>
  <path d="M69.5 42.7v.1h.1a2 2 0 0 0 .1-1.7c0-.2 0-.1 0 0l-.2 1.6zM71.9 43c.2-.4.2-1.3.2-1.8 0-.1 0-.1 0 0-.4.6-.5 1.2-.4 1.8 0 .2 0 .2.2 0z" stroke="#EFEACC" stroke-width=".6"/>
  <path d="M69.2 43.4c-.3.3 0 .8.3.6l.1-.1-.3-.5h-.1zM64.3 44l-.1-.3c-.1-.2-.2-.2-.3 0l.1.6.3.1 1 .1c.2 0 .3 0 0-.2l-.8-.2s-.2 0-.2-.2zM68.7 44s0 0 0 0l-.3-.1h-.2l-.1.2s0 0 0 0l.3.1h.2l.1-.1zM66.5 44.3c-.2-.1-.4 0-.3.2a.1.1 0 0 0 .1.1s0 0 0 0h.2c.2-.2.2-.3 0-.3z" stroke="#858181" stroke-width=".6"/>
  <path d="M72 47h.4v-.1h0v-.1c0-.6-.2-1.1-.4-1.5 0-.4-.2-.6-.3-.6h0V45.3A11.7 11.7 0 0 0 72 47h0z" stroke="#EFEACC" stroke-width=".6"/>
  <path d="M59 39l-.1.2" stroke="#947144" stroke-width=".6"/>
  <path d="M58.9 39.2l-1.6-.3" stroke="#352A21" stroke-width=".6"/>
  <path d="M96.6 39.6l-.1-.2h-.1-.1" stroke="#5B3819" stroke-width=".6"/>
  <path d="M56.3 40.3c-.4-.1-.7-.4-.6-.9" stroke="#2A1F17" stroke-width=".6"/>
  <path d="M58.9 39.2l3.8 1" stroke="#765127" stroke-width=".6"/>
  <path d="M61.4 48h-.1" stroke="#140A07" stroke-width=".6"/>
  <path d="M61.3 48a16.8 16.8 0 0 1-2.8-3.2c-1.3-.7-2.2-2.2-3.4-4" stroke="#86592F" stroke-width=".6"/>
  <path d="M55.1 40.8l-.7-1" stroke="#6F4826" stroke-width=".6"/>
  <path d="M55.1 40.8h-.2v.3c1 1.7 1.9 3.5 2.7 5.3 2.1 4.4 3.4 7 4.4 10.7" stroke="#DE9851" stroke-width=".6"/>
  <path d="M61.3 48l1.4.7" stroke="#835932" stroke-width=".6"/>
  <path d="M62.7 48.7l.1.1s.1.1 0 .2v.1" stroke="#B78E63" stroke-width=".6"/>
  <path d="M66.8 51.5c.2.2.4.3.7.2" stroke="#B57840" stroke-width=".6"/>
  <path d="M71 48.1c-.2.4-.4.5-.7.5-2.5-.2-5 0-7.6.1" stroke="#443F3B" stroke-width=".6"/>
  <path d="M71.6 48.4l-.1-.3" stroke="#937457" stroke-width=".6"/>
  <path d="M72 1.7c-.4.3-.5.6-.4 1l.2.2A18.1 18.1 0 0 0 76 4L78.4 6V6c-.4.6-1.3 1.7-1.3 2.4l.2.1h.5c.2 0 .2.1.2.3v5.6l-3-.6-.5-1.3c.7 0 1-.3 1-1a1331.8 1331.8 0 0 0-.2-5.9C74 4 71.8 3.4 69.7 3.2a52.4 52.4 0 0 0-13.6 0l-.1-.6c4-.8 7.8-.4 11.4-1.4 1.6-.4 3.1 0 4.6.5z" fill="#EE934C"/>
  <path d="M81.1 15.6l-3-1.1V8.9c0-.2-.1-.3-.3-.3h-.5l-.2-.1c0-.7 1-1.8 1.3-2.4V6L76 4H76c-1.4-.3-2.8-.7-4.1-1.2a.4.4 0 0 1-.2-.3c-.1-.3 0-.6.4-1 2.9-.3 5.5.2 8 1.6 2.1 1.3 3.8 2.5 2.3 5.2-.6 1-1.2 2-1.3 3.3l.1 3.9z" fill="#524A3E"/>
  <path d="M56 2.6l.1.5a52.4 52.4 0 0 1 13.6 0c2.1.3 4.2.9 5.6 2.6l.1.3.2 5.6c0 .7-.4 1-1 1-3.6-6.2-12-4.8-13.9 1.9l-.2.2-2.5.6-4.5.6a.3.3 0 0 1-.3-.3v-1.2c-.2-2.7-2-5.1-3.8-7.1V7c1.7-2.2 3.8-4 6.6-4.4z" fill="#FCC343"/>
  <path d="M74.5 12.6l.6 1.3.3 2.1-.2 1.8v.2h-.3v-.3c.2-2.1-.2-4-1.2-5.5a6.8 6.8 0 0 0-11.1-.4 7.4 7.4 0 0 0-1.4 6c-.1.4-.3.5-.4.3 0-.4 0-.7-.3-1a141.1 141.1 0 0 0-4.5.7c-.7.2-2 0-3.9-.3l.2-2.3c0-.2 0-.2.2-.2.3 0 .6-.2.6-.6v1.2a.3.3 0 0 0 .4.3l4.5-.6a170.1 170.1 0 0 1 2.7-.8c1.9-6.7 10.3-8.1 13.8-2z" fill="#41270C"/>
  <path d="M74.8 17.7c-3.6.3-7.4.3-11.3-.1-.8 0-1.5 0-2.4.3-.3-2.4.1-4.5 1.5-6.1 3-3.7 8.5-3.6 11 .4 1 1.5 1.5 3.4 1.2 5.5z" fill="#FCC343"/>
  <path d="M75 14l3 .5 3.1 1c.6.5 1.3 1.2.7 1.9-.6-.9-4.6-1.2-6.4-1.4l-.3-2z" fill="#3C3429"/>
  <path d="M75.4 16c1.8.2 5.8.5 6.4 1.4v.4h-.2c0 .1-.2.2-.3.1-2-.4-3.9 0-6 0 0 .1 0 0 0 0v-.1l.1-1.8zM60.8 18.1h-.2l-.2.1c-.9-.1-1.7.3-2.3.4-2 .3-4 .5-6 .4.1-.7.2-1.2 0-1.5 1.8.4 3.2.4 4 .3a141.2 141.2 0 0 1 4.4-.7c.2.3.3.6.3 1z" fill="#FCC343"/>
  <path d="M74.8 17.7l.1.3h.2l.1-.2c0 .2 0 .2.2.2 2-.2 3.9-.5 6 0l.2-.1.3-.1-.2.1v.2l8 1.3.8.3v.2l-.2.1c-1.6 0-3.1-.4-4.7-.7-1.2-.2-2.6-.2-4-.5a8.7 8.7 0 0 0-3.7.2 315 315 0 0 0-14.3-.5l-3.3.6c-1.3 0-2.3.2-3.6.6-2.4.6-4.8.6-7.1 0-.7-.3-1.2-.3-1.8-.3l-4.7.2c1.5-1.4 6.2-.7 8-.6h1c2 0 4 0 6-.4.6-.1 1.4-.5 2.3-.4h.4c.1.1.3 0 .4-.3.8-.3 1.5-.4 2.3-.3 4 .4 7.7.4 11.3.1z" fill="#D59849"/>
  <path d="M63.6 18.5a33.3 33.3 0 0 1-3.6 4.2h-1.5-.2l-.5-.1c-.9-.7-1.8-.7-2.8-.3l-.4-.3a3 3 0 0 0-1.6-.6c-.3-.2-.6-.2-1-.2a18 18 0 0 0-5.6-.5c-.5 0-.9 0-1.2.4l-6.4 2.1c.8-2 2.2-3.2 4.3-3.6l4.7-.2c.6 0 1.1 0 1.8.2 2.3.7 4.7.7 7 0 1.4-.3 2.4-.4 3.7-.5l3.3-.6z" fill="#3C3429"/>
  <path d="M63.6 18.5c4.8 0 9.6.2 14.3.5 2.3.2 4.6.7 6.8 1.6l-3.4.5a2 2 0 0 0-1.3.3c-.5 0-1 .3-1.4.6-1.4-.5-3.6-1-4.8.3l-4 4.4c-1.5 1.6-1.2 3.8-.2 5.5l.3.2.9.2s.2 0 .2.2c.6.7 1.3 1 2.2 1-.7.2-1.2.6-1.6 1.2v.2c.3.3.4.7.4 1V36.9l1.4.4 1.4.2c1 .2 1.6.6 2.2 1.1v.7c-.2.1-.3.1-.4 0l-.4-.2h-.3c-.6.1-1 .4-1.4 1h-.2a.7.7 0 0 1-.4-.2v-.1-.1c-.6 0-4.4 0-4.6.4l.1.2c.2 0 .4.2.4.5-1.4-.6-2.5-.3-3.3.9h-.2c-.5-1-1.3-1.2-2.4-.9-.2 0-.3 0-.4-.2l.3-.2v-.1c0-.2-.1-.2-.2-.1l-.2.3-.3-.2c.2-.2.1-.3 0-.3a140.7 140.7 0 0 1-6.5-1.5c.1-.3.4-.5.7-.5.5.5 1 .6 1.6.5 1.2.5 2.5.9 4 1 0 .2.3.3.4.3.2 0 .2 0 .2-.2l-.6-1c-.1-.3-.3-.5-.5-.6a4 4 0 0 1-1.2-1l.2-.3v-.5a5 5 0 0 1 2.8 3c.1.5.4.7 1 .9h.3c.6-.3 1-.6 1-1 .7-2 2.1-3.2 4.2-3.4l.3-.1c.6-.8.6-2.4-.8-2.5l-.3.1-2.6 2.6c-.1.1-.2 0-.2 0V34c0-1.2-.4-2.6-.2-4 .1-1 0-2-.6-2.9l-.2-.2c-2-.7-2.2.8-2.4 2.3l-.2.8c0 .1 0 .2-.1.1l-.4-.2-.1-.3.4-1.7v-.3c-.2-.6 0-1 .6-1 .7-.3.7-.3 0-.2-.7.2-1.3.4-1.8.8v.3l-.1 2h-.2l-.1-.1v-1.7l-.1-.2a26.4 26.4 0 0 0-4-4.8l.1-.1h.1l.5.1H60l.3-.1c1.2-1.3 2.3-2.7 3.3-4.1zM60.1 23H59a.1.1 0 0 0-.1 0 .1.1 0 0 0 0 .2l2.8 3.5h.3a6.4 6.4 0 0 1 7 .1h.2l3.3-3.6a.2.2 0 0 0-.1-.3c-1.4.4-3.6-3.2-5.2-3.6-1.1-.3-3.3-.3-4 .5a102.3 102.3 0 0 1-3 3.2z" fill="#100A0A"/>
  <path d="M90.5 19.7h.1c2 .5 4.6 1.5 4.6 4-2.1-1-4.3-1.7-6.6-2.3-.7-.5-1.5-.8-2.4-.7l-1.5-.1c-2.2-.9-4.5-1.4-6.8-1.6 1.4-.3 2.6-.4 3.7-.2 1.4.3 2.8.3 4 .5 1.6.3 3 .8 4.7.7l.2-.1v-.2zM60.4 23c1-1 1.8-2 2.6-3s3-.9 4-.6c1.7.4 4 4 5.3 3.6a.2.2 0 0 1 .2.2v.1L69 26.9H69a6.4 6.4 0 0 0-7 0l-.3-.1-2.8-3.5a.1.1 0 0 1 0-.2h1.3c.2 0 .3 0 .3-.2z" fill="#635B4E"/>
  <path d="M90.6 19.7h-.1l-.8-.3c.4-.1.7 0 1 .3z" fill="#524A3E"/>
  <path d="M88.6 21.4l5.7 3.8v.1h-.1-.2c-2.4-1.8-5-3.3-7.8-4.6 1 0 1.7.2 2.4.7z" fill="#AD7442"/>
  <path d="M52 21.2c0 .5.2.9.5 1.2l.3.2c.7.2 1.4 0 2-.3h.2c-.1.6-.4 1.1-.8 1.6a.7.7 0 0 1-1 0 7.8 7.8 0 0 0-9-.7c-3.4 2-4.9 5.3-4.2 9.8l-1 1c-.7 1-1.6 1.7-2.6 2.6l-.1.3v.6l-.1.3c-.5.6-.9 1.2-1.1 2-1 .9-2.1 1.7-3.3 2.4-.2 0-.2.2 0 .3.1.2.1.4-.1.5-.4.1-.3.2 0 .2s.5-.1.6-.4v-.1l-.2-.1c-.2 0-.2-.2 0-.3a19.6 19.6 0 0 1 4.2-2.6c.1-.2.6-1 .9-1 0 0 .1.1 0 .2a7.2 7.2 0 0 0-1.6 3.9c0 .3 0 .3.2 0l1.2-3c.3.4.5.4.7.3 2.2-1.6 4.5-2.2 7-2 4.4 1.1 7.8-.2 10.1-3.9.1-.3.4-.4.7-.3l.8-.2h.9l1.8-.2 1.3.2h.3c1.2-1 1.4.2 2 .7.6.3.6.2.3-.3-2.1-3 1.5-2.5.8-5 .2-1.4.4-3 2.4-2.2l.2.2c.6 1 .7 1.9.6 3-.2 1.3.1 2.7.2 4a98.7 98.7 0 0 0 .2 1.6l2.6-2.6.3-.1c1.4 0 1.4 1.7.8 2.5l-.3.1a4.5 4.5 0 0 0-4.1 3.4c-.1.4-.5.7-1.1 1h-.3c-.6-.2-.9-.4-1-.8a5 5 0 0 0-2.8-3c-.8 0-2-.5-2.6.3-.2.3-.1.5.2.7.6.3 1-1 2.4-.6l-.2.3h-.6c-.1 0-.1.1 0 .2.5.5 1 1 1.2 1.6 0 .1.1.2.3.2l.8.2c.1 0 .2 0 .1.2l-.2.1c-1.4-.1-2.7-.5-4-1 0-.4-.2-.7-.5-1H58l-.7.5c-.3 0-.6.2-.7.5-.3 0-.5.1-.5.4l-.4.6c-.5 0-1 0-1.3.3-1 0-2.1.2-3 .7a20.9 20.9 0 0 0-3.7 1.6c-.5.8-1.2 1.2-2 1.3-.3 0-.3 0-.2-.2.6-.7 1-1.4 1.4-2.3.2-.6.2-.5-.2.1a8.4 8.4 0 0 1-4.6 3.8.1.1 0 0 1 0-.2c0-.2.4-1.4.2-1.6h-.1c-.8 2.4-2.5 3.3-4.2 4.7-1.2-.2-3 .1-3.6-1l-1.8-2.2c-.8-1-2-1.3-3.3-1.4L29 43c-2.3-1.7-1.9-4.7-.9-7l.3-.6c1-1 1.8-2.2 2.4-3.5 1.7-2 3.2-4 4.6-6.1.9-1.3 2.2-1.6 3.4-2.5l6.4-2a53.3 53.3 0 0 0-2.2 1.6 28 28 0 0 0 3.4-2c1.9-.2 3.8 0 5.7.4zM86.2 20.7a46.7 46.7 0 0 1 8 4.7h.1v-.2l-5.7-3.8c2.3.6 4.5 1.3 6.6 2.2.9.5 1.8.9 2.4 1.8l3.5 4.7c1.3 1.7 2.4 3.6 3.8 5.3l.1.3c1 2 1.4 5 0 6.7-.8.7-1.9.8-2.8 1l-.7-.6v-.2l.2-.2v-.1a30 30 0 0 1-3.9-2.9c0-.6-.3-1-.7-1.3l-.1-.3c0-.7-.2-1.1-.4-1.3a32.3 32.3 0 0 1-3.3-3.7c.3-3.3.2-5.5-2-7.9-3.4-3.6-7.6-3.5-11.5-.9h-.3c-.7-.2-1.1-.8-1.1-1.6h.3c1.3.6 2.2.2 2.6-1.3l3.4-.5 1.5.1z" fill="#F5A85A"/>
  <path d="M46.4 20.8a45.6 45.6 0 0 0-7 4.4 53.3 53.3 0 0 1 7-4.4z" fill="#AD7442"/>
  <path d="M81.3 21.1c-.4 1.5-1.3 1.9-2.6 1.2.4-.2 1.8-.2 1.3-1a2 2 0 0 1 1.3-.2zM52 21.2c.4 0 .7 0 1 .2.4.7 1 .9 1.6.6l.4.3h-.2c-.6.4-1.3.5-2 .3-.1 0-.2 0-.3-.2a2 2 0 0 1-.4-1.2z" fill="#754826"/>
  <path d="M53 21.4a3 3 0 0 1 1.6.6c-.7.3-1.2 0-1.6-.6zM80 21.4c.5.7-1 .7-1.3 1h-.3v-.2l.2-.2c.4-.3.9-.6 1.4-.6z" fill="#D59849"/>
  <path d="M78.6 22l-.2.2a1 1 0 0 0-.6.7c-.8.3-1.4.8-1.9 1.5v.3c1.8.9.4 2.4-.3 3.3l.4-1.2v-.3l-.3-1a.1.1 0 0 0-.2 0c-.3.8-.5 1.5-.4 2.3v.3l.4.2c.2.6.6 1 1 1.4a.3.3 0 0 0 .3 0v-.1l2.4-4.6 1-.2h.3c.6-.5 1.3-.8 2-1a8.4 8.4 0 0 0-3.2 2.9 7.2 7.2 0 0 0-.3 7.5l.2.6h-.4c-.2-.4-.5-.7-.8-.8-1.3-.3-3-.4-4.8-.2-.9 0-1.6-.3-2.2-1l-.2-.2-1-.2-.2-.2c-1-1.7-1.3-4 .1-5.5l4.1-4.4c1.2-1.3 3.4-.8 4.8-.3z" fill="#635B4E"/>
  <path d="M57.8 22.6l-.2.1v.1c-.5-.3-1.1-.4-1.7-.2h-.3c-.1 0-.2 0-.1.1.3 1.2-.1 2-1.4 2.2l-3-1.2c-1-.5-3-.7-4-.6-5.1.3-8 4.7-6.3 9.5 1.3 3 3.5 4.6 6.8 4.7 1.5.2 2.8 0 4-.8a7.3 7.3 0 0 0 3-2.6l.2.2v.1c-2.3 3.7-5.7 5-10.1 3.9-1.2-.7-2.1-1.4-3.5-.8-1 .5-2 .6-2.8.5l-.2-.1c.5-.5.8-1 1.4-1.3.5-.3.9-.8 1.2-1.3v-.3L40 33c-.7-4.5.8-7.8 4.2-9.8 3-1.8 6.4-1.4 9 .7a.7.7 0 0 0 1 0c.4-.5.7-1 .8-1.6 1-.4 2-.4 2.8.3zM93.3 32.8l-.8 2.1v.3c.4.6.9 1 1.5 1.4l.8.8c1 .8 2 1.5 3 2a30 30 0 0 0 3.9 3l-.2.2v.2l.7.5h-.1c-.7 0-1-.3-1-.9v-.3a16 16 0 0 0-4-2.3l-.2-.3c-.3-.4-.6-.6-1-.7-.5-.9-1.3-1.2-2.4-1h-.3c-2-1.2-2.9-.6-4.7.4-3.9 1-7.6.2-9.7-3.4h.4c1 1.2 2.1 2 3.6 2.5 4.7 1.4 9.4-1.4 10-6.4.4-5-4-8.4-8.8-7.4l-1.5.4c-.7.1-1.4.4-2 .8l-.3.1-1 .2c-1.3-.3-1.8-1-1.4-2.1.1-.4.3-.6.6-.7v.2c0 .8.4 1.4 1.1 1.7h.3c4-2.7 8.1-2.8 11.5.8 2.2 2.4 2.3 4.6 2 8z" fill="#170904"/>
  <path d="M55.9 22.6c0 .5 1.2 1.2 1.5 1.8v.2c-1.6.6-.8 2.3.1 3.1.3.2.4.2.1-.1-.4-.7-.4-1.3 0-2 0-.2.1-.2.2 0 .8 1.8.4 3.1-1.3 4l-.6-1-.1-.8c-.7-1-1.3-1.9-1.7-2.9 1.3-.2 1.7-1 1.4-2.2v-.2h.4z" fill="#F5A85A"/>
  <path d="M57.6 22.8a26.4 26.4 0 0 1 4 5l.1 1.6c0 1 .2 2-.4 2.8-.6.7-1.3 1.2-2.3 1.3l-1.8.1c-.4-.1-.6-.4-.6-.7v-3.2c1.6-1 2-2.3 1.2-4.1-.1-.2-.2-.2-.3 0-.3.7-.3 1.3.1 2 .3.3.2.3 0 .1-1-.8-1.8-2.5-.2-3v-.3c-.3-.6-1.5-1.3-1.5-1.8.6-.2 1.2-.1 1.7.2z" fill="#635B4E"/>
  <path d="M77.8 22.9c-.4 1 0 1.8 1.4 2.1l-2.3 4.6a.3.3 0 0 1-.3.1h-.1a3 3 0 0 1-1-1.4V28c.8-1 2.2-2.4.5-3.3v-.3c.4-.7 1-1.2 1.8-1.5z" fill="#F5A85A"/>
  <path d="M54.1 25c.4 1 1 1.9 1.7 2.8.1.2.2.4.1.8l.2 3.3c-.5.6-.7 1.2-.6 2-.3-.1-.6 0-.7.3v-.1l-.1-.1h-.1a8 8 0 0 0-.8-7.7 6.2 6.2 0 0 0-6-2.6c-1.1 0-2.2.2-3.2.6-.9.4-1.3 1-1.9 1.7a6.2 6.2 0 0 0-1.5 6.3c0 .1-.1.3-.4.3-1.6-4.8 1.2-9.2 6.4-9.5 1 0 3 .1 4 .6.9.5 1.9 1 2.9 1.2z" fill="#7E6E46"/>
  <path d="M92.8 31h-.2l-.2-.1c0-3.1-2.4-6.8-5.6-7.1h-.2l-.2.3c-.8 0-1.6-.2-2.4-.6 4.8-1 9.2 2.3 8.8 7.4z" fill="#78736B"/>
  <path d="M47.8 23.7c-6.2 1.7-7.6 10.6-1.3 13.1l1 .5a7.2 7.2 0 0 1-6.7-4.7c.3 0 .4-.2.4-.3a6.2 6.2 0 0 1 1.5-6.3c.6-.7 1-1.3 1.9-1.7 1-.4 2-.6 3.2-.6z" fill="#524A3E"/>
  <path d="M84 23.5c.8.4 1.6.5 2.4.6 3 1.4 4.4 3.6 4.4 6.5-.1 3.9-2.7 6.5-6.6 6.5-.5 0-1 0-1.4.2a7.3 7.3 0 0 1-3.6-2.5l-.2-.6c.6.2 1.1.6 1.5 1.1 0 .1 0 .2.2.2 1.3 1 2.7 1.3 4.3 1l.3-.2.7-.2h.3l1-.8s.1-.1 0-.2a13 13 0 0 0-4.1-6.3c-1.4-1.2-2.2-2.2-3.9-2.1a8.4 8.4 0 0 1 3.2-2.8l1.5-.4zm5.8 7.4c.5-3.8-2.4-7.1-6.3-6.5a2 2 0 0 0-1.3.7v.3l.6.9c1.4 1.3 5.8 5.6 6.8 4.9l.2-.3zM53.8 26.3a15.3 15.3 0 0 0-8 9.3.4.4 0 0 0 .5.4c.5 0 .8.1 1.2.4l.3.1c1.3.2 2.6.2 3.9 0-1.3.8-2.6 1-4.1.8l-1-.5c-6.4-2.5-5-11.4 1.2-13.1 2.5-.2 4.5.6 6 2.6zm-4 .7l1.2-1.5a.6.6 0 0 0 0-.7l-.3-.1c-4-1.8-8.1 2-7.1 6.2a.6.6 0 0 0 1 .4c1.8-1.3 3.5-2.7 5.2-4.3z" fill="#F5A85A"/>
  <path d="M92.8 31c-.6 5-5.3 7.7-10 6.3l1.4-.2c4 0 6.5-2.6 6.6-6.5 0-3-1.4-5.1-4.4-6.5l.2-.3h.2c3.2.3 5.6 4 5.6 7 0 .2 0 .2.2.2h.2z" fill="#524A3E"/>
  <path d="M49.8 27a59.6 59.6 0 0 1-5.5 4.4.6.6 0 0 1-.7-.5c-1-4.1 3.1-8 7.1-6.2a.6.6 0 0 1 .3.8L49.8 27zM83.5 24.4c4-.6 6.8 2.7 6.3 6.5l-.1.3c-1.1.7-5.5-3.6-6.9-5-.3-.2-.5-.5-.6-.8v-.3a2 2 0 0 1 1.3-.7z" fill="#E4DC9F"/>
  <path d="M75.6 28v.3l-.4-.2-.1-.3a5.6 5.6 0 0 1 .4-2.3.1.1 0 0 1 .2 0l.3 1v.3l-.4 1.2z" fill="#D59849"/>
  <path d="M53.8 26.3a8 8 0 0 1 .8 7.6c-.8 1.2-1.7 2-3 2.6a19 19 0 0 1-3.8 0l-.3-.1c-.4-.3-.7-.4-1.2-.4a.4.4 0 0 1-.4-.6c1-3.9 4.3-7.3 7.9-9z" fill="#F9D147"/>
  <path d="M63.7 29.1c.7 2.5-3 2-.8 5 .3.5.3.6-.2.3-.7-.5-1-1.8-2.1-.8l-.3.1-1.3-.2c1-.1 1.7-.6 2.3-1.3.6-.8.4-1.8.4-2.8l.1.1h.2c.2 0 0-1.8 0-2l.1-.3c.5-.4 1.1-.6 1.7-.8.8-.1.8 0 0 .1-.5.2-.7.5-.5 1v.4l-.4 1.7.1.3.4.2.1-.1.2-.9z" fill="#3C3429"/>
  <path d="M79.3 26.7c1.7-.1 2.5 1 3.9 2a13 13 0 0 1 4.2 6.4l-.1.2-1 .7-.3.1a1 1 0 0 0-.7.2l-.3.2c-1.6.3-3 0-4.3-1-.1 0-.2 0-.2-.2-.4-.5-.9-1-1.5-1a7.2 7.2 0 0 1 .3-7.6z" fill="#F9D147"/>
  <path d="M56 28.6l.5 1V33c.1.3.3.6.7.7h-.9l-.2-1.7-.2-3.3z" fill="#100A0A"/>
  <path d="M56 31.9l.3 1.8-.8.2c0-.8.1-1.4.6-2z" fill="#41270C"/>
  <path d="M93.3 32.8c1 1.3 2.1 2.6 3.3 3.7.2.2.4.6.4 1.3l.1.3c.4.3.7.7.8 1.3-1.1-.5-2.2-1.2-3.1-2l-.8-.8c-.6-.4-1.1-.8-1.5-1.4v-.3l.8-2zM40 33l.8 1.8v.3c-.3.5-.7 1-1.2 1.3-.6.4-.9.8-1.4 1.3-1 .8-2 1.5-3.1 2 .2-.7.6-1.3 1-2l.2-.2v-.6l.1-.3c1-.9 2-1.6 2.7-2.7l.9-.9z" fill="#AD7442"/>
  <path d="M78.8 34.8c2 3.6 5.8 4.4 9.7 3.4 2-.3 4 0 5.5 1a6 6 0 0 0 2.4.8c.5.8.8 1.8 1 2.7l.2.1c-.1-1.2-.5-2.2-1-3.2l.3-.1.3.3.2.2A16 16 0 0 1 101 42l.1.3c0 .6.3 1 1 1-.5.2-.8.2-1.2.6l-2 2.6-.3.4-.2.2-3 .4c-2-1.5-3.7-2.4-4.4-5h-.1l.2 1.9c0 .2 0 .2-.1.1a10 10 0 0 1-4.4-3.5c-.3-.3-.3-.3-.1 0a6 6 0 0 0 1.4 2 .1.1 0 0 1-.2.2c-.4 0-.8-.2-1.2-.5-1.2-1-2.5-1.7-4-2.3a7 7 0 0 0-3.2-.6c-1.1 4.4-4.1 6.1-6.5 9.5-1 1.4-2.2 2.9-4 1.7 2.6-.9 4.6-2.5 6-4.8v-.4l.1-.3A17.3 17.3 0 0 0 78 38l-.3.3c-.2-.1-.5 0-.7.1-.6-.5-1.3-1-2.2-1-.1-.8-.4-1.2-1-1.4-.4-.1-.9 0-1.5.2H72c0-.4-.1-.8-.3-1V35c.3-.6.8-1 1.5-1.2 1.9-.2 3.5-.1 4.8.2.3.1.6.4.8.8z" fill="#F5A85A"/>
  <path d="M107.8 36.3c-.3.3-.4.6-.3 1 0 .3 1.9 1.5 2.3 2v.1c0 .1-.1.1-.2 0l-1.7-1c-.1-.2-.2-.2-.3 0l-.2 1.2c0 .2 0 .2.2.3l2.9 1.8v.2h-.2l-2.8-1.4a.4.4 0 0 0-.5.1c-1 1.6-2 3-3.2 4.3h-.2l-.1-.3c1.8-2 5.4-6.6 1.7-9l-.2.1-.1-.3c1.2-.3 2.1 0 3 .9zM28.4 35.3l-.3.6c-.9.3-1.4 1-1.4 2-.1 2.8 1 4.2 2.5 6.2l-.1.3h-.3a19.2 19.2 0 0 1-2.8-4 .2.2 0 0 0-.2 0l-4 2.3h-.2c0-.3 2.8-2 4-2.7.1 0 .2-.1.1-.3l-.5-1.5V38l.5-1v-.1c-.3 0-.4-.2-.4-.4.8-.9 1.9-1.2 3.1-1z" fill="#AD7442"/>
  <path d="M103.5 44.6a14 14 0 0 1-3.3 2L99 47c-.2 0-.2 0-.2-.2v-.1L101 44c.4-.4.7-.4 1.2-.7 1 0 2.1-.2 2.8-1 1.5-1.6 1-4.6.1-6.6h.2c3.7 2.3.1 7-1.7 9zM28.1 35.9c-1 2.3-1.4 5.3.9 7l.3.1c1.3.1 2.5.3 3.3 1.4l1.8 2.2c-1.4.7-4-1.5-5.2-2.5-1.4-2-2.6-3.4-2.5-6.1 0-1 .5-1.8 1.4-2.1z" fill="#41270C"/>
  <path d="M61.4 36.1v.5c-1.3-.5-1.8.9-2.4.6-.3-.2-.4-.4-.2-.7.7-.8 1.8-.4 2.6-.4zM74.8 37.4l-1.4-.2c.1-.1.2-.3.1-.4 0-.1 0-.2-.2-.2l-1-.3c.6-.3 1.1-.3 1.6-.2.5.2.8.6 1 1.3z" fill="#754826"/>
  <path d="M72 36.3h.3l1 .3.2.2-.1.4a3 3 0 0 1-1.3-.4l-.1-.2v-.3z" fill="#D59849"/>
  <path d="M107.8 36.3l4.3 3.2h.2c1.6 0 6.2-.2 7 1.4a.6.6 0 0 1-.1.9h-.3l-2.4.3-.2.1c-.8.8-1.7 1-2.7.5h-.1v.1c.3 2.5-1.6 4.2-3.5 5.4a.7.7 0 0 1-.6 0c-1.7-.5-4-1.2-5.8-1.2 0 0-.2 0-.2.2-1.6 2.2-5.4 2-7.7 1-.3 0-.4-.3-.3-.6l3-.4c.1 0 .2 0 .2-.2l.3-.4-.1.1c0 .1 0 .2.2.2.4-.1.8 0 1.2-.2a14 14 0 0 0 3.3-2v.1h.3c1.2-1.2 2.3-2.6 3.1-4.2a.4.4 0 0 1 .6-.1l2.8 1.4h.1c.1-.1.1-.2 0-.2l-2.8-1.8a.2.2 0 0 1-.2-.3l.2-1.2c0-.2.2-.2.3 0l1.7 1c0 .1.1.1.2 0v-.1c-.4-.5-2.2-1.7-2.3-2 0-.4 0-.7.3-1zM25.3 36.4c0 .2.1.4.3.4.1 0 .2 0 .1.1l-.4 1v.3l.4 1.5v.3c-1.3.8-4.1 2.4-4 2.6v.1l4.1-2.3a.2.2 0 0 1 .2 0c.8 1.5 1.7 2.8 2.8 4h.3l.1-.3c1.1 1 3.8 3.2 5.2 2.5.7 1.1 2.4.8 3.6 1l-.1.5-.2.2c-2.7 1-5.9 1-8-1.3h-.2c-2 .2-3.8.6-5.7 1.3h-.3c-2.1-1.3-3.7-2.8-3.6-5.5a.1.1 0 0 0-.2 0c-1 .3-1.9.2-2.6-.6l-.3-.2-2.2-.1a.7.7 0 0 1-.6-.5V41c.3-1.8 5.6-1.6 7-1.5l.3-.1 4-3z" fill="#78736B"/>
  <path d="M61.2 36.9c.3.4.7.7 1.2 1l-.3.3.1.2h.7l.6 1.1c0 .2 0 .2-.2.2a.9.9 0 0 1-.5-.3l.2-.1-.1-.2-.8-.2c-.2 0-.3 0-.3-.2-.3-.6-.7-1.1-1.2-1.6-.1 0-.1-.1 0-.1l.6-.1zM44.7 38c-2.5-.1-4.8.5-7 2-.2.2-.4.2-.7-.1.3-.8.7-1.5 1.4-2 .8 0 1.8-.1 2.8-.6 1.4-.6 2.3 0 3.5.8zM95.9 38.8c0 .3.1.5.4.7v.5A6 6 0 0 1 94 39a8.4 8.4 0 0 0-5.5-1c1.8-1 2.7-1.5 4.7-.3h.3c1-.2 1.9.1 2.4 1z" fill="#AD7442"/>
  <path d="M58.9 38.4c-.6.1-1.1 0-1.6-.5l.7-.5h.3c.3.3.5.6.6 1zM38.2 37.7l.2.1c-.7.6-1.1 1.3-1.4 2l-1.2 3c-.1.3-.2.3-.2 0 .2-1.5.7-2.7 1.6-3.9.1 0 0-.1 0-.1-.3 0-.8.7-.9.9l-.2.2c-1.5.6-2.8 1.4-4 2.4-.2.1-.2.2 0 .3h.1c.1.1.1.2 0 .2 0 .3-.2.4-.5.4s-.4 0 0-.2c.2-.1.2-.3 0-.5v-.3c1.3-.7 2.4-1.5 3.4-2.4a17 17 0 0 0 3.1-2.1zM62.4 38c.2 0 .4.2.5.4h-.7v-.2s0-.2.2-.3z" fill="#754826"/>
  <path d="M82.5 40.5c0 .2-.1.3-.3.3l-.3.1c-.9 1.7-2 3.3-3.4 4.7-.3-.3-.7-.5-1-.6h-.2a17 17 0 0 1-5.6 6.6c-1.2.9-3 .6-4.2.1-.2-.2-.4-.3-.7-.2-2.2.3-3.9 2.5-6 .1a8 8 0 0 1-1.3-2.3.1.1 0 0 1 .2 0c1.2 1.4 2.7 3 4.7 1.6v-.2a8.5 8.5 0 0 1-3.3-2.2.1.1 0 0 1 .2-.1l1.5.7c3 1.4 6 1.1 8.8-.7.3 0 .4 0 .5-.2v-.1h-.6c.2-.5.6-.5 1-.7 1-.8 1.7-1.8 2-3 .1-.1 0-.2 0-.2l-1-.5h-.2l-1 .5h-.4l-.9-.4v-.1-.1s0-.1.1 0c.6.4 1.2.4 1.8-.1l.2-.1h1c0 .2.1.1.2 0 1.7-1.2 2.9-3 3.4-5l.2-.3a.1.1 0 0 1 .2 0v.1c-.5 2.7-1.6 5.2-3.2 7.4v.4l-.1.3c-1.4 2.3-3.4 4-6 4.8 1.8 1.2 3-.3 4-1.7 2.4-3.4 5.4-5.1 6.4-9.5a.1.1 0 0 1 .2 0 7 7 0 0 1 3.1.6z" fill="#170904"/>
  <path d="M77.7 38.4c-.5 2-1.7 3.8-3.4 5 0 .1-.2.2-.3 0h-.9-.2c-.6.6-1.2.6-1.8.1l-.1.2v.1l1 .4h.2l1.1-.5h.3l1 .5v.2c-.4 1.2-1 2.2-2.1 3-.4.2-.8.2-1 .7H71l-.5-.3h-.3c-.6.5-1.2.5-1.8.1h-.2c-.6.5-1.2.4-1.6-.2h-.3l-.7.6h-.3l-.3-.5h-.2c-.5.6-1 .6-1.5 0l-.3-.1c-.2 0-.4 0-.5.3l-.2.1a1 1 0 0 1-.9-.1 17.8 17.8 0 0 1-2.7-3.4v-.1l1-1.2s.1-.1.2 0l1.3 1h.3l.7-.7c.1 0 .1-.1 0-.2-.2 0-.5.3-.7.5h-.3l-1.2-1c-.1-.2-.2-.2-.3 0l-.6.3h-.3a9 9 0 0 1-2.5-3l-.2-1.4c0-.3.2-.4.5-.4.2.2.4.3.7.3v.2c-.1.2-.2.4 0 .7.9-.4 1.5-.3 2 .4h.3c.7-.2 1.2 0 1.5.6h.3l1.3-.4h.4l.3.2h.1c0 .3.2.4.4.3 1.1-.3 2 0 2.4.9h.2c.8-1.2 2-1.5 3.3-.9.7-.5 1.5-.7 2.2-.4h.3c.5-.4 1-.6 1.6-.5l.4.2h.2c.4-.6.8-.9 1.4-1h.3l.4.3.3-.1v-.7c.3-.2.6-.2.8-.1zm-8.2 4.3v.1h.1a2 2 0 0 0 .1-1.7c0-.2 0-.2 0 0l-.2 1.6zm2.4.3c.2-.4.2-1.3.2-1.8 0-.1 0-.1 0 0-.4.6-.5 1.2-.4 1.8 0 .2 0 .2.2 0zm-2.7.4c-.3.3 0 .8.3.6l.1-.1-.3-.5h-.1zm-5 .5v-.2c-.1-.2-.2-.2-.3 0l.1.6.3.1 1 .1c.2 0 .3 0 0-.2l-.8-.2s-.2 0-.2-.2zm4.5.2v-.2h-.3-.2l-.1.2.3.1h.2l.1-.1zm-2.2.2c-.2-.1-.4 0-.3.2a.1.1 0 0 0 .2.1h.1c.2-.2.2-.3 0-.3zm5.6 2.7h.3v-.2c0-.6-.2-1.1-.4-1.5 0-.4-.2-.6-.3-.6V45.3A11.7 11.7 0 0 0 72 47z" fill="#F9F8F8"/>
  <path d="M59 39l-.1.2-1.6-.3v-.2c.6 0 1.1 0 1.7.3z" fill="#524A3E"/>
  <path d="M95.9 38.8c.4 0 .7.3 1 .7h-.4c0-.1-.1-.1-.1 0h-.1a.7.7 0 0 1-.4-.7z" fill="#754826"/>
  <path d="M56 38.8l.3 1.5c-.4-.1-.7-.4-.6-.9l.4-.6z" fill="#3C3429"/>
  <path d="M57.3 39l1.6.2 3.8 1-1.3.5-.3-.1c-.3-.6-.8-.8-1.5-.5l-.3-.1c-.5-.7-1.1-.8-2-.4-.2-.3-.1-.5 0-.7z" fill="#170904"/>
  <path d="M59 39l4 .9c.2 0 .3.1.1.3h-.4l-3.8-1V39z" fill="#D59849"/>
  <path d="M55.7 39.4c0 .5.2.8.6.9a9 9 0 0 0 2.5 2.9h.3l.6-.4h.3l1.2 1h.3c.2 0 .5-.5.7-.4.1 0 .1.1 0 .2l-.7.6h-.3l-1.3-1-.2.1-1 1.2a.3.3 0 0 0 0 .3c.8 1.2 1.7 2.2 2.7 3.2h-.1a16.8 16.8 0 0 1-2.8-3.2c-1.3-.7-2.2-2.2-3.4-4l-.7-1c.4-.4.8-.5 1.3-.4z" fill="#170904"/>
  <path d="M96.6 39.6c.5 1 .9 2 1 3.2h-.2c-.2-1-.5-2-1-2.8l-.1-.5c.1-.1.1-.1.2 0h.1z" fill="#41270C"/>
  <path d="M74 39.8c-.6 0-1.2 0-1.7.4H72c-.7-.2-1.5 0-2.2.5 0-.3-.2-.5-.4-.5-.1 0-.2-.1 0-.3.1-.3 3.9-.3 4.4-.3l.2.1z" fill="#524A3E"/>
  <path d="M54.4 39.7l.7 1.1h-.2v.3c1 1.8 1.9 3.5 2.7 5.3 2.1 4.4 3.4 7 4.4 10.7-1.3-.2-2.3-1-3-2-.7-1-1.3-2.1-1.6-3.3l-.1-.3c-.8-.7-1.8-1.3-2.4-2a12 12 0 0 1-3.6-9.1c1-.5 2-.7 3-.7z" fill="#C78747"/>
  <path d="M63.5 40.5v-.1-.3h.3v.2l-.3.2z" fill="#7E6E46"/>
  <path d="M55.1 40.8c1.2 1.8 2.1 3.3 3.4 4l.2.2c.8 1.3 1.5 2 2.6 3l1.4.7.1.1c.1 0 .1.1 0 .2v.1l-1.5-.7a.1.1 0 0 0-.2.2c1 1 2 1.7 3.2 2.1.2 0 .2.2 0 .2-2 1.3-3.4-.2-4.6-1.6a.1.1 0 0 0-.2 0 8 8 0 0 0 1.4 2.3c2 2.4 3.7.2 6 0 0 .1.3.2.6.1 1.3.5 3 .8 4.2 0a17 17 0 0 0 5.6-6.6l.2-.1c.3 0 .7.3 1 .6.8.7-.6 1.7-1 2.1l-.2.3c-.3 3.2-1.6 5.8-3.9 7.8-2.2 1.9-4.7 2.2-7.2.6a.3.3 0 0 0-.3 0c-1.2.7-2.5.9-3.9.7-1-3.8-2.3-6.3-4.4-10.7a69.5 69.5 0 0 0-2.7-5.5h.2z" fill="#F5A85A"/>
  <path d="M69.5 42.7l.1-1.6c0-.1 0-.2.1 0a2 2 0 0 1 0 1.7h-.2zM72 41.2c.1.5 0 1.4-.1 1.8-.1.2-.2.2-.2 0 0-.6 0-1.2.3-1.8 0-.1 0-.1 0 0z" fill="#E4DC9F"/>
  <path d="M69.3 43.4l.3.5v.1c-.4.2-.7-.3-.4-.6h.1zM64.5 44c.4 0 .6.2.9.3.2.2.1.3-.1.2h-1l-.3-.2a.7.7 0 0 1 0-.6c0-.2 0-.2.2 0v.2l.3.2zM68.4 44.2l.3-.1c0-.1-.1-.2-.3-.2-.2 0-.3 0-.3.2l.3.1zM66.2 44.5c0-.3.1-.3.3-.2.2 0 .2.1 0 .2l-.1.1a.1.1 0 0 1-.2-.1z" fill="#100A0A"/>
  <path d="M72 47v-.1a19.5 19.5 0 0 1-.3-2v-.2l.3.6.4 1.5v.1h-.3z" fill="#E4DC9F"/>
  <path d="M71 48.1c-.2.4-.4.5-.7.5-2.5-.2-5 0-7.6.1l-1.4-.6.1-.1c.3.2.6.2 1 .1l.1-.1c.1-.2.3-.3.5-.3h.3c.5.7 1 .7 1.5.1h.2l.3.4c.1.2.2.2.3 0l.7-.6h.3c.4.7 1 .8 1.6.3h.2c.6.4 1.2.4 1.8 0h.3l.5.2z" fill="#100A0A"/>
  <path d="M71.6 48.4l-.1-.3h.5c.1 0 .2 0 .1.1 0 .2-.2.2-.5.2z" fill="#AD7442"/>
  <path d="M71 48.1h.5l.1.3a8.6 8.6 0 0 1-8.8.7V49c.1 0 0-.1 0-.2 2.5-.2 5-.4 7.5-.2.3 0 .5-.1.7-.5z" fill="#78736B"/>
  <path d="M67.5 51.7c-.3.1-.5 0-.7-.2.3-.1.5 0 .7.2z" fill="#754826"/>
  <path d="M.8 9.5h11.4V49H.8V9.5zm22.1 24.3h-8.2v-9.2h8.2v-15h11.5V49H22.9V33.8zm78.5-24.3H113V49h-11.5V9.5zm14 30.2h12.2V49h-12.3v-9.3zm17-30.2H144V49h-11.4V9.5zm32-.3a78.5 78.5 0 0 1 13.3.5l4.2.7v8.2a84.5 84.5 0 0 1-6.8-.6 69.8 69.8 0 0 0-8 0c-1 0-2 .3-2.6.7V9.2zm3.8 40.2c-3.8 0-6.8-.2-9.1-.8a10 10 0 0 1-5.3-3 13.1 13.1 0 0 1-2.7-6c-.5-2.6-.7-6-.7-10.4 0-3.6.1-6.6.5-8.9.3-2.3 1-4.2 1.7-5.7a9 9 0 0 1 3.6-3.5 17 17 0 0 1 5.9-1.7v19.8c0 2.8 0 4.8.2 6.3a9 9 0 0 0 .8 3.3c.5.8 1.2 1.3 2 1.6.9.3 2.1.5 3.7.5v8.5h-.6zm3-15.6h-4v-8.3H182V48a48.2 48.2 0 0 1-10.9 1.3V33.8zm27-24.3h1l4.5 15.7-6.6 23.8h-11.5l12.6-39.5zM211.1 42h-9.6L204 33h4.6l-6.7-23.6h10.4L224.8 49h-11.7l-2-7zM228.6 11V9.5h11.5l22.1 37.8V49h-11.4L228.6 11zM251.3 24V9.5h11v33l-11-18.6zm-22.7-8l11 18.6V49h-11V15.9z" fill="#FEB000"/>
</svg>
