<svg viewBox="0 0 381 381" fill="none" xmlns="http://www.w3.org/2000/svg">
  <path d="M190.4 372.8a182.4 182.4 0 1 0 0-364.8 182.4 182.4 0 0 0 0 364.8z" fill="#FEDBB0"/>
  <path d="M190.4 8c-6.8 0-13.5.4-20 1.1a182.4 182.4 0 0 1 0 362.6A182.4 182.4 0 1 0 190.4 8z" fill="#E8C197"/>
  <path d="M107.7 168.2a20.1 20.1 0 1 0 0-40.2 20.1 20.1 0 0 0 0 40.2zM273 168.2a20.1 20.1 0 1 0 0-40.2 20.1 20.1 0 0 0 0 40.2z" fill="#725246"/>
  <path d="M293.2 264.8H87.6a10 10 0 1 1 0-20h205.6a10 10 0 0 1 0 20z" fill="#D1AB86"/>
  <path d="M190.4 0C85.4 0 0 85.4 0 190.4s85.4 190.4 190.4 190.4 190.4-85.4 190.4-190.4S295.4 0 190.4 0zm0 372.8a182.4 182.4 0 1 1 0-364.8 182.4 182.4 0 0 1 0 364.8z" fill="#422618"/>
</svg>
