<svg viewBox="0 0 328 314" fill="none" xmlns="http://www.w3.org/2000/svg">
  <path d="M282.3 158.3l-7.3-20.8-79 79a40.6 40.6 0 0 1-57.8 0l-58-58a40.6 40.6 0 0 1 0-57.8 40.6 40.6 0 0 1 57.8 0l29 29L245 51.9 239.6 37l-2.4-14.4c-1.5-9.3-7.6-17-16.2-20.5a26.7 26.7 0 0 0-26 3l-38 27.4L118.7 5a26.9 26.9 0 0 0-42.2 17.6L69 68.8l-46.5 7.7A26.8 26.8 0 0 0 2 92.7a26.8 26.8 0 0 0 3 26l27.4 38L5 195a27 27 0 0 0 17.6 42.2l46.2 7.5 7.7 46.4a27 27 0 0 0 42.3 17.5l37.9-27.4 38.2 27.4a26.8 26.8 0 0 0 26 3 26.8 26.8 0 0 0 16.3-20.4l7.5-46.2 46.4-7.8a27 27 0 0 0 17.5-42.3l-26.3-36.6z" fill="#FEB000"/>
  <path d="M167 201.2c-3.4 0-6.9-1.4-9.6-4l-58-58a13.6 13.6 0 1 1 19.4-19.3l48.3 48.4 137-137a13.6 13.6 0 1 1 19.2 19.3L176.7 197.2c-2.6 2.6-6.1 4-9.6 4z" fill="#4B018C"/>
</svg>
